HIERARCHY
ROOT Hips
{
	OFFSET 0.000000 88.474243 0.000000
	CHANNELS 6 Xposition Yposition Zposition Zrotation Yrotation Xrotation 
	JOINT Hips_Spine
	{
		OFFSET 0.000000 0.000000 0.000000
		CHANNELS 3 Zrotation Yrotation Xrotation
		JOINT Spine
		{
			OFFSET 0.005100 8.711998 -0.691000
			CHANNELS 3 Zrotation Yrotation Xrotation
			JOINT Spine1
			{
				OFFSET -0.009200 8.660301 -1.275000
				CHANNELS 3 Zrotation Yrotation Xrotation
				JOINT Spine2
				{
					OFFSET 0.006300 9.852501 -1.857000
					CHANNELS 3 Zrotation Yrotation Xrotation
					JOINT Spine2_Neck
					{
						OFFSET 0.000000 0.000000 0.000000
						CHANNELS 3 Zrotation Yrotation Xrotation
						JOINT Neck
						{
							OFFSET 0.016300 11.420799 -0.263300
							CHANNELS 3 Zrotation Yrotation Xrotation
							End Site #name: Head
							{
								OFFSET -0.019200 9.262405 2.362500
							}
						}
					}
					JOINT Spine2_LeftShoulder
					{
						OFFSET 0.000000 0.000000 0.000000
						CHANNELS 3 Zrotation Yrotation Xrotation
						JOINT LeftShoulder
						{
							OFFSET 5.616900 6.732201 -0.345700
							CHANNELS 3 Zrotation Yrotation Xrotation
							JOINT LeftArm
							{
								OFFSET 10.664888 -0.183372 -2.440700
								CHANNELS 3 Zrotation Yrotation Xrotation
								JOINT LeftForeArm
								{
									OFFSET 27.459126 0.000000 0.000000
									CHANNELS 3 Zrotation Yrotation Xrotation
									End Site #name: LeftHand
									{
										OFFSET 21.306858 0.000000 0.000000
									}
								}
							}
						}
					}
					JOINT Spine2_RightShoulder
					{
						OFFSET 0.000000 0.000000 0.000000
						CHANNELS 3 Zrotation Yrotation Xrotation
						JOINT RightShoulder
						{
							OFFSET -5.580300 6.737503 -0.344400
							CHANNELS 3 Zrotation Yrotation Xrotation
							JOINT RightArm
							{
								OFFSET -10.679335 -0.188484 -2.383900
								CHANNELS 3 Zrotation Yrotation Xrotation
								JOINT RightForeArm
								{
									OFFSET -27.503529 0.000000 0.000000
									CHANNELS 3 Zrotation Yrotation Xrotation
									End Site #name: RightHand
									{
										OFFSET -21.306808 0.000000 0.000000
									}
								}
							}
						}
					}
				}
			}
		}
	}
	JOINT Hips_LeftUpLeg
	{
		OFFSET 0.000000 0.000000 0.000000
		CHANNELS 3 Zrotation Yrotation Xrotation
		JOINT LeftUpLeg
		{
			OFFSET 6.857700 -6.739601 0.312100
			CHANNELS 3 Zrotation Yrotation Xrotation
			JOINT LeftLeg
			{
				OFFSET -0.367590 -34.731552 -4.572400
				CHANNELS 3 Zrotation Yrotation Xrotation
				End Site #name: LeftFoot
				{
					OFFSET 0.367590 -34.656704 -6.067400
				}
			}
		}
	}
	JOINT Hips_RightUpLeg
	{
		OFFSET 0.000000 0.000000 0.000000
		CHANNELS 3 Zrotation Yrotation Xrotation
		JOINT RightUpLeg
		{
			OFFSET -6.876100 -6.733299 0.301000
			CHANNELS 3 Zrotation Yrotation Xrotation
			JOINT RightLeg
			{
				OFFSET 0.347353 -34.795158 -4.515900
				CHANNELS 3 Zrotation Yrotation Xrotation
				End Site #name: RightFoot
				{
					OFFSET -0.347353 -34.589367 -6.070300
				}
			}
		}
	}
}
MOTION
Frames: 12
Frame Time: 0.041667
0.090885 -0.101745 -0.080866 -0.487931 -21.767084 -1.062045 0.000000 0.000000 -0.000000 -9.251276 2.092179 9.398905 -1.664725 -0.286955 5.774135 0.000000 0.000000 0.000000 -1.983985 -0.080721 5.612048 -4.498102 -1.650636 10.780640 -1.760367 -0.529460 6.705137 22.106565 1.708205 -0.693059 -48.364048 12.696756 -24.173826 0.548198 -14.956607 -0.588799 -1.904319 -0.055938 6.113275 -19.324269 0.846524 -0.200303 -13.316291 52.895315 -52.978846 -0.193257 33.320224 0.110724 -0.000000 0.000000 0.000000 -18.132036 15.679887 -23.926230 9.401980 5.945810 31.598465 0.000000 -0.000000 -0.000000 -10.771441 -19.669360 -14.003904 10.470800 0.850085 26.060598 
-1.065880 0.802245 -0.795775 4.698722 -23.140069 -6.142899 0.000000 0.000000 0.000000 -7.628789 2.049861 10.260605 -1.194816 -0.007054 5.449857 0.000000 0.000000 0.000000 -0.818476 -0.049357 5.925002 -1.640372 -1.609941 9.253292 -1.434092 -0.105044 5.558127 19.108928 2.813784 0.561317 -51.090053 6.446243 -25.534550 -0.035293 6.738158 0.330932 -1.262214 0.165858 5.158334 -19.471236 1.570829 0.531884 -11.947794 53.681469 -54.290609 -0.073161 32.246775 0.562933 0.000000 0.000000 0.000000 -17.281306 14.876683 -24.331138 7.728988 9.221015 34.543731 0.000000 -0.000000 0.000000 -11.858452 -9.772645 -18.524261 10.636420 0.748664 37.896226 
-1.862073 0.698867 -1.089499 7.475605 -30.117174 -9.919936 0.000000 0.000000 0.000000 -5.783058 1.800671 8.357387 -0.723529 0.179026 4.818128 0.000000 0.000000 0.000000 -0.646313 -0.101481 5.573865 -0.516272 -2.721594 6.705366 -0.898609 -0.067533 4.887534 14.152125 3.631253 0.893722 -43.120644 1.339311 -21.430526 -0.088778 7.670496 0.265062 -0.959710 0.202034 5.072678 -25.211127 2.238865 0.462641 -6.150594 59.554952 -48.962934 -0.105078 29.706595 0.259719 0.000000 0.000000 0.000000 -15.496058 16.539401 -22.981637 7.244163 9.174532 35.438239 0.000000 -0.000000 0.000000 -11.818115 -6.389829 -32.830001 10.789674 1.560614 61.995431 
-2.330167 -0.198705 -1.402110 7.739448 -30.686162 -11.114958 0.000000 0.000000 0.000000 -5.083834 0.998065 6.374447 -0.360857 0.309242 4.674899 0.000000 0.000000 0.000000 -0.418279 -0.123903 4.951823 0.587580 -2.414541 5.062490 -0.497993 -0.038358 4.587717 4.494832 4.043192 0.584761 -45.844530 -3.240806 -16.432111 -0.102726 2.935719 0.176478 -0.590784 0.209275 4.775255 -28.941926 1.267762 0.661170 10.947383 67.586065 -32.732971 -0.013801 27.335358 0.014380 0.000000 0.000000 0.000000 -15.479731 17.720907 -23.920429 7.840900 7.473977 38.153933 0.000000 -0.000000 0.000000 -10.464367 -3.172321 -44.249089 10.722343 0.097338 79.532873 
-2.744909 -1.699247 -1.990585 7.873968 -28.608148 -13.003690 -0.000000 0.000000 0.000000 -4.983604 0.260769 5.794219 -0.049423 0.300282 4.648078 0.000000 0.000000 0.000000 -0.206187 -0.151560 4.575636 1.829939 -2.692004 3.947145 -0.237716 -0.032183 4.547059 -8.367272 2.409895 0.610865 -51.290766 -8.229382 -10.280383 -0.090132 -1.188632 0.135307 -0.296148 0.182583 4.707456 -27.981535 0.879771 0.620686 62.276740 64.156585 14.924012 -0.136235 23.059775 -0.104547 0.000000 0.000000 0.000000 -16.005297 20.091614 -25.140185 6.793746 3.377099 43.006001 0.000000 -0.000000 0.000000 -11.213385 0.515821 -50.411739 9.702008 -1.382353 87.367989 
-3.087679 -3.543989 -2.985933 8.099605 -26.574050 -16.092843 -0.000000 0.000000 0.000000 -5.037438 -0.153125 6.839523 0.112378 0.221154 4.742397 0.000000 0.000000 0.000000 -0.081810 -0.171575 4.525563 3.215762 -2.712768 2.388975 -0.058665 -0.061538 4.532565 -16.292447 -0.633710 1.233700 -57.867090 -15.950610 -4.474413 -0.066520 -4.211326 0.153289 -0.117082 0.124352 4.790042 -22.426155 0.546509 0.670093 77.087544 44.930117 35.803580 -0.131848 21.099311 0.017625 0.000000 0.000000 0.000000 -15.926290 22.001190 -25.954668 2.652693 -2.193728 48.818143 0.000000 -0.000000 0.000000 -13.442468 3.848501 -53.391976 8.112721 -1.981412 90.923496 
-3.353128 -4.995786 -4.220081 7.826788 -24.621291 -18.588794 -0.000000 0.000000 0.000000 -4.840306 0.069647 8.830858 0.217397 0.146719 4.820544 0.000000 0.000000 0.000000 -0.001935 -0.148806 4.489743 4.907208 -2.238143 0.703253 0.059593 -0.086971 4.441301 -17.148253 -2.865434 1.766465 -58.360726 -25.178539 -1.548505 -0.191846 -10.855224 0.106309 -0.013482 0.099237 4.932624 -15.887746 -0.082317 0.903795 72.176567 33.541582 35.202891 -0.152352 26.430735 0.147420 0.000000 0.000000 0.000000 -15.059401 22.403864 -25.969789 -2.193994 -6.298957 52.999119 0.000000 -0.000000 0.000000 -15.468194 8.212509 -56.350757 6.915097 -2.175940 92.737378 
-3.508455 -5.480153 -5.536484 7.234236 -24.163002 -20.226541 -0.000000 0.000000 0.000000 -4.528999 0.086681 10.396790 0.396926 0.099204 4.686026 0.000000 0.000000 0.000000 0.109931 -0.107159 4.432281 6.395695 -1.471863 -1.426926 0.154852 -0.100893 4.297916 -11.254057 -5.804813 1.875191 -50.565457 -41.901454 -6.189962 -0.207041 -19.713225 0.038707 0.070652 0.071163 4.933827 -8.762261 -2.289289 1.415095 60.003826 29.128009 29.194371 -0.050931 44.877472 0.298554 0.000000 0.000000 0.000000 -13.680721 21.248742 -25.618994 -3.717442 -6.563349 53.966218 0.000000 -0.000000 0.000000 -15.392652 11.287345 -58.333503 6.171553 -1.805589 93.263861 
-3.548752 -4.589461 -6.751211 6.536376 -25.481170 -20.919335 -0.000000 -0.000000 0.000000 -3.966136 0.133954 11.844776 0.553107 0.072129 4.501265 0.000000 0.000000 0.000000 0.246554 -0.066927 4.346032 7.140622 -0.205261 -3.259196 0.275165 -0.076523 4.217658 -0.727469 -6.798822 0.930770 -26.162520 -55.199347 -28.788647 -0.272895 -41.643885 0.074490 0.206293 0.022554 4.820047 -4.693549 -5.640675 1.764377 42.704176 31.933397 14.444496 0.274506 74.115405 0.664718 0.000000 0.000000 0.000000 -11.914144 19.426704 -24.206967 -2.826210 -5.749553 51.242795 0.000000 -0.000000 0.000000 -13.670792 12.018926 -59.192177 6.360672 -1.216430 92.511581 
-3.536277 -2.646370 -7.714466 5.633916 -28.653155 -20.641919 -0.000000 -0.000000 0.000000 -3.104672 0.220680 12.372254 0.610734 0.034235 4.413458 0.000000 0.000000 0.000000 0.354167 -0.029520 4.252498 7.406295 0.884427 -4.525157 0.356328 -0.027016 4.158840 7.155369 -6.226282 0.115172 -3.290651 -56.520976 -53.068890 -0.148075 -71.497239 -0.019982 0.356709 -0.000473 4.667391 -3.790508 -8.803941 1.933654 27.259219 37.562405 -5.928189 179.012339 82.737146 179.277282 0.000000 0.000000 0.000000 -10.250070 19.055590 -22.037493 0.335693 -3.586138 45.743784 0.000000 -0.000000 0.000000 -11.713376 11.176781 -59.925141 6.544549 -0.920911 91.166196 
-3.487347 -0.566321 -8.357094 4.405023 -31.413910 -19.591914 0.000000 -0.000000 0.000000 -2.259417 0.402595 12.186289 0.606071 0.062790 4.396417 0.000000 0.000000 0.000000 0.390617 0.034398 4.215519 6.846876 2.016712 -4.287003 0.339136 0.026868 4.086683 12.963540 -5.204916 -0.315732 -2.501332 -46.819094 -62.308131 179.075153 -81.292114 -179.372016 0.404413 0.042703 4.512676 -5.502169 -11.370020 2.220695 12.148192 41.507138 -28.773810 179.738268 71.694238 179.974623 0.000000 0.000000 0.000000 -8.708069 19.771663 -20.230463 3.719927 -1.425850 40.886227 0.000000 -0.000000 0.000000 -10.506708 9.701547 -60.067642 7.982956 -0.563720 89.178725 
-3.450473 0.486342 -8.810029 2.870326 -32.353297 -18.071913 0.000000 -0.000000 0.000000 -1.612271 0.578113 11.832749 0.560131 0.164117 4.488206 0.000000 0.000000 0.000000 0.371300 0.081282 4.252903 5.431854 3.300967 -2.825776 0.246663 0.110522 4.120908 16.648313 -3.149397 -0.432087 -16.884021 -31.612134 -57.937709 179.866873 -66.727621 179.890481 0.323723 0.137451 4.526162 -8.096416 -13.033375 2.553632 6.680093 41.601184 -42.757617 179.905923 70.508413 -179.828226 0.000000 0.000000 0.000000 -7.733531 21.642863 -19.379539 5.329446 -0.718051 38.883940 0.000000 -0.000000 -0.000000 -10.148556 8.509498 -58.258855 8.438267 -0.502532 86.394380 
